<?xml version="1.0" encoding="UTF-8" standalone="no"?>
<svg width="203px" height="203px" viewBox="0 0 203 203" version="1.1" xmlns="http://www.w3.org/2000/svg" xmlns:xlink="http://www.w3.org/1999/xlink">
    <!-- Generator: Sketch 41.2 (35397) - http://www.bohemiancoding.com/sketch -->
    <title>Group 9</title>
    <desc>Created with Sketch.</desc>
    <defs></defs>
    <g id="Page-1" stroke="none" stroke-width="1" fill="none" fill-rule="evenodd">
        <g id="Group-9" transform="translate(2.000000, 2.000000)">
            <circle id="Oval-7" stroke="#8492A6" stroke-width="4" fill="#8492A6" cx="99.5" cy="99.5" r="99.5"></circle>
            <path d="M87.184,127.088 L87.184,149.264 L109.792,149.264 L109.792,127.088 L87.184,127.088 Z M64,79.568 L85.168,79.568 C85.168,76.975987 85.4559971,74.5520113 86.032,72.296 C86.6080029,70.0399887 87.495994,68.0720084 88.696,66.392 C89.896006,64.7119916 91.4319906,63.368005 93.304,62.36 C95.1760094,61.351995 97.407987,60.848 100,60.848 C103.840019,60.848 106.839989,61.9039894 109,64.016 C111.160011,66.1280106 112.24,69.3919779 112.24,73.808 C112.336,76.400013 111.880005,78.5599914 110.872,80.288 C109.863995,82.0160086 108.544008,83.5999928 106.912,85.04 C105.279992,86.4800072 103.50401,87.9199928 101.584,89.36 C99.6639904,90.8000072 97.8400086,92.5039902 96.112,94.472 C94.3839914,96.4400098 92.8720065,98.8159861 91.576,101.6 C90.2799935,104.384014 89.4880014,107.839979 89.2,111.968 L89.2,118.448 L108.64,118.448 L108.64,112.976 C109.024002,110.095986 109.959993,107.69601 111.448,105.776 C112.936007,103.85599 114.63999,102.152007 116.56,100.664 C118.48001,99.1759926 120.519989,97.6880074 122.68,96.2 C124.840011,94.7119926 126.807991,92.9120106 128.584,90.8 C130.360009,88.6879894 131.847994,86.1440149 133.048,83.168 C134.248006,80.1919851 134.848,76.400023 134.848,71.792 C134.848,69.0079861 134.248006,66.0080161 133.048,62.792 C131.847994,59.5759839 129.856014,56.5760139 127.072,53.792 C124.287986,51.0079861 120.616023,48.6800094 116.056,46.808 C111.495977,44.9359906 105.808034,44 98.992,44 C93.7119736,44 88.9360214,44.8879911 84.664,46.664 C80.3919786,48.4400089 76.7440151,50.9119842 73.72,54.08 C70.6959849,57.2480158 68.3440084,60.9919784 66.664,65.312 C64.9839916,69.6320216 64.0960005,74.3839741 64,79.568 Z" id="?" stroke="#FFFFFF" stroke-width="3" fill="#FFFFFF"></path>
        </g>
    </g>
</svg>