<?xml version="1.0" encoding="UTF-8" standalone="no"?>
<svg width="203px" height="203px" viewBox="0 0 203 203" version="1.1" xmlns="http://www.w3.org/2000/svg" xmlns:xlink="http://www.w3.org/1999/xlink">
    <!-- Generator: Sketch 41.2 (35397) - http://www.bohemiancoding.com/sketch -->
    <title>Group 8</title>
    <desc>Created with Sketch.</desc>
    <defs></defs>
    <g id="Page-1" stroke="none" stroke-width="1" fill="none" fill-rule="evenodd">
        <g id="Group-8" transform="translate(2.000000, 2.000000)" stroke="#8492A6">
            <circle id="Oval-7" stroke-width="4" fill="#FFFFFF" cx="99.5" cy="99.5" r="99.5"></circle>
            <path d="M87.728,126.824 L87.728,149 L110.336,149 L110.336,126.824 L87.728,126.824 Z M64.544,79.304 L85.712,79.304 C85.712,76.711987 85.9999971,74.2880113 86.576,72.032 C87.1520029,69.7759887 88.039994,67.8080084 89.24,66.128 C90.440006,64.4479916 91.9759906,63.104005 93.848,62.096 C95.7200094,61.087995 97.951987,60.584 100.544,60.584 C104.384019,60.584 107.383989,61.6399894 109.544,63.752 C111.704011,65.8640106 112.784,69.1279779 112.784,73.544 C112.88,76.136013 112.424005,78.2959914 111.416,80.024 C110.407995,81.7520086 109.088008,83.3359928 107.456,84.776 C105.823992,86.2160072 104.04801,87.6559928 102.128,89.096 C100.20799,90.5360072 98.3840086,92.2399902 96.656,94.208 C94.9279914,96.1760098 93.4160065,98.5519861 92.12,101.336 C90.8239935,104.120014 90.0320014,107.575979 89.744,111.704 L89.744,118.184 L109.184,118.184 L109.184,112.712 C109.568002,109.831986 110.503993,107.43201 111.992,105.512 C113.480007,103.59199 115.18399,101.888007 117.104,100.4 C119.02401,98.9119926 121.063989,97.4240074 123.224,95.936 C125.384011,94.4479926 127.351991,92.6480106 129.128,90.536 C130.904009,88.4239894 132.391994,85.8800149 133.592,82.904 C134.792006,79.9279851 135.392,76.136023 135.392,71.528 C135.392,68.7439861 134.792006,65.7440161 133.592,62.528 C132.391994,59.3119839 130.400014,56.3120139 127.616,53.528 C124.831986,50.7439861 121.160023,48.4160094 116.6,46.544 C112.039977,44.6719906 106.352034,43.736 99.536,43.736 C94.2559736,43.736 89.4800214,44.6239911 85.208,46.4 C80.9359786,48.1760089 77.2880151,50.6479842 74.264,53.816 C71.2399849,56.9840158 68.8880084,60.7279784 67.208,65.048 C65.5279916,69.3680216 64.6400005,74.1199741 64.544,79.304 Z" id="?" stroke-width="3" fill="#8492A6"></path>
        </g>
    </g>
</svg>